<?xml version="1.0" standalone="no"?>
<!DOCTYPE svg PUBLIC "-//W3C//DTD SVG 20010904//EN"
 "http://www.w3.org/TR/2001/REC-SVG-20010904/DTD/svg10.dtd">
<svg version="1.0" xmlns="http://www.w3.org/2000/svg"
 width="1024.000000pt" height="1024.000000pt" viewBox="0 0 1024.000000 1024.000000"
 preserveAspectRatio="xMidYMid meet">

<g transform="translate(0.000000,1024.000000) scale(0.100000,-0.100000)"
fill="#000000" stroke="none">
<path d="M0 5120 l0 -5120 5120 0 5120 0 0 5120 0 5120 -5120 0 -5120 0 0
-5120z m5595 4590 c1187 -100 2217 -718 2906 -1742 354 -527 586 -1130 665
-1728 19 -146 30 -648 17 -810 l-8 -105 -85 -12 c-46 -7 -86 -11 -88 -9 -1 2
2 50 8 106 13 129 13 509 0 660 -13 146 -43 335 -76 472 l-25 107 -90 -61
c-77 -52 -90 -64 -85 -83 20 -78 66 -338 77 -430 26 -220 9 -765 -25 -787 -6
-4 -30 -8 -54 -8 -42 0 -43 1 -38 28 28 131 33 504 11 718 -15 144 -53 353
-74 406 l-10 27 -43 -19 c-24 -10 -71 -24 -105 -30 -35 -7 -63 -16 -63 -20 0
-3 13 -71 30 -151 53 -261 74 -452 86 -800 l7 -186 -133 -7 c-72 -4 -133 -6
-135 -4 -2 2 14 39 35 83 80 165 94 368 45 650 -15 88 -37 194 -49 235 -19 69
-23 75 -51 80 -16 3 -59 22 -95 42 -36 20 -83 45 -105 54 -22 10 -42 20 -44
21 -2 2 9 42 25 89 l29 87 180 -7 c99 -4 205 -11 235 -16 47 -7 60 -5 92 14
63 35 277 181 278 188 0 9 -57 29 -215 77 -198 59 -234 66 -274 49 -26 -10
-56 -11 -135 -5 -145 12 -412 1 -708 -29 l-258 -26 -110 56 c-232 119 -485
200 -770 246 -511 82 -1208 38 -1634 -102 -95 -31 -345 -148 -408 -191 -35
-24 -46 -26 -275 -36 -286 -14 -626 -42 -898 -76 -477 -60 -749 -126 -970
-238 -125 -62 -285 -198 -285 -240 0 -14 -13 -77 -30 -140 -16 -64 -30 -138
-30 -165 0 -52 26 -195 60 -322 l19 -75 -38 -40 c-41 -43 -121 -148 -121 -158
0 -4 93 -7 206 -7 l206 0 55 -49 c31 -28 93 -69 139 -92 46 -24 84 -45 84 -47
0 -11 -292 6 -303 17 -8 8 -5 11 14 11 14 1 -3 11 -44 25 -63 22 -178 39 -404
60 -40 4 -73 11 -73 16 0 5 9 32 20 61 18 48 20 77 20 294 0 341 19 492 83
679 105 303 274 512 502 622 155 74 219 87 450 87 189 1 206 -1 299 -27 54
-15 118 -36 142 -46 l43 -19 -36 49 c-153 214 -81 467 185 642 39 26 74 47 77
47 4 0 -10 -19 -29 -42 -79 -92 -103 -243 -54 -349 34 -75 76 -120 147 -157
49 -27 70 -32 125 -32 122 0 202 62 227 176 10 44 9 68 -6 144 -32 165 -4 290
89 397 40 46 151 124 212 149 l39 16 -31 -34 c-93 -100 -129 -190 -122 -305 3
-54 12 -91 27 -122 34 -65 106 -137 170 -168 48 -24 68 -28 146 -28 81 0 95 3
145 30 125 69 175 215 116 340 -13 28 -49 82 -80 120 -101 125 -144 247 -133
380 18 210 151 383 370 484 125 59 339 110 242 59 -65 -34 -152 -129 -188
-205 -30 -64 -32 -75 -32 -178 0 -104 2 -114 33 -177 92 -186 283 -261 399
-154 30 27 36 41 41 84 4 46 0 61 -38 137 -41 81 -42 89 -38 154 7 99 43 169
127 250 115 111 275 184 491 223 90 16 169 21 365 24 l250 4 -60 -19 c-260
-80 -457 -232 -550 -426 -52 -109 -65 -166 -65 -294 0 -116 26 -228 70 -305
72 -126 178 -204 262 -193 71 10 123 62 134 136 7 41 6 44 -12 36 -47 -21 -90
-17 -121 9 -76 64 -84 200 -20 329 64 129 187 242 354 326 46 22 85 41 88 41
3 0 -10 -23 -29 -50 -61 -89 -80 -152 -80 -265 -1 -86 3 -110 28 -175 90 -236
102 -299 74 -391 -15 -52 -70 -115 -113 -130 -39 -14 -41 -22 -21 -70 48 -115
187 -119 291 -8 130 139 153 379 54 557 -28 50 -28 52 -8 41 39 -20 174 -162
219 -228 78 -116 91 -174 75 -341 -9 -100 3 -154 42 -201 101 -120 303 -72
362 87 25 65 27 160 6 219 -8 22 -15 41 -15 43 0 11 26 -17 61 -65 126 -169
164 -383 94 -528 -16 -33 -31 -63 -32 -66 -2 -3 29 3 69 13 184 47 358 71 533
71 200 1 271 -12 543 -97 94 -29 172 -53 172 -51 0 1 -25 62 -56 136 -223 534
-446 892 -800 1288 -200 224 -421 414 -673 582 l-133 89 -24 -32 c-13 -18 -40
-55 -60 -81 -19 -27 -34 -50 -32 -52 2 -1 39 -26 83 -56 491 -325 893 -756
1180 -1264 68 -119 119 -224 113 -231 -2 -2 -22 3 -43 11 -22 8 -48 14 -57 15
-11 0 -51 58 -116 168 -241 405 -524 736 -857 1003 -114 91 -356 259 -372 259
-13 -1 -106 -154 -96 -157 25 -9 254 -167 351 -244 143 -112 416 -387 526
-529 119 -154 316 -454 304 -465 -2 -2 -48 -7 -103 -10 l-100 -7 -25 48 c-13
27 -61 104 -106 171 -214 319 -491 587 -864 835 -91 60 -164 114 -163 119 2 5
84 131 183 281 l181 272 -23 17 c-43 33 -304 158 -443 212 -459 181 -909 257
-1435 244 -235 -6 -370 -20 -575 -58 -882 -163 -1646 -640 -2231 -1394 -160
-205 -278 -394 -420 -670 -264 -512 -403 -973 -445 -1470 -11 -136 -6 -543 8
-609 l6 -28 -84 7 c-46 4 -88 11 -94 17 -15 14 -13 638 3 783 16 142 60 369
102 524 260 957 828 1808 1573 2359 455 337 942 553 1487 661 173 35 387 65
520 74 112 8 456 6 565 -3z m-140 -390 c197 -12 448 -48 622 -90 111 -27 377
-110 411 -129 7 -4 -94 -6 -225 -3 -338 6 -571 -20 -767 -88 -50 -17 -65 -17
-157 -7 -123 13 -312 -1 -431 -33 -141 -37 -351 -139 -432 -211 -20 -17 -75
-43 -133 -63 -393 -137 -781 -383 -1102 -699 -231 -228 -371 -413 -515 -684
-3 -4 -238 -34 -241 -31 -7 7 89 170 171 293 232 348 585 710 899 921 489 330
1029 511 1605 540 132 6 153 10 234 41 108 42 298 93 345 93 63 0 23 12 -86
26 -166 21 -458 29 -613 15 -724 -62 -1407 -359 -1957 -850 -286 -255 -592
-655 -796 -1040 l-55 -104 -73 -34 c-40 -18 -74 -32 -75 -30 -6 6 134 286 193
386 189 323 469 670 723 899 108 96 325 266 415 323 112 72 177 111 251 152
471 258 1000 399 1559 415 33 1 137 -3 230 -8z m875 -2274 c348 -60 573 -132
880 -284 162 -80 282 -157 373 -242 l68 -63 -68 -22 c-37 -12 -83 -30 -102
-39 -52 -28 -125 -106 -146 -158 -11 -27 -23 -48 -26 -48 -5 0 -99 165 -99
174 0 2 23 4 52 5 75 1 135 24 202 78 l59 47 -39 34 c-176 153 -585 335 -952
423 l-134 32 -66 -32 c-37 -18 -109 -60 -160 -93 -94 -61 -117 -68 -88 -26 9
12 16 19 16 15 0 -4 30 22 68 58 37 36 79 71 95 78 15 6 27 14 27 18 0 6 -287
57 -394 70 -50 5 -18 7 109 4 132 -3 218 -10 325 -29z m212 -151 c141 -34 353
-102 409 -131 56 -29 49 -60 -9 -40 -107 38 -514 106 -634 106 -34 0 -82 -25
-74 -39 3 -4 -1 -8 -9 -8 -22 0 -18 10 14 41 21 21 143 102 157 106 1 0 67
-16 146 -35z m1984 -101 c174 -53 169 -47 79 -106 -51 -33 -80 -47 -88 -41 -7
5 -32 15 -57 22 -25 7 -53 15 -62 17 -10 3 -18 1 -18 -5 0 -6 8 -11 18 -11 9
0 24 -5 32 -10 12 -8 10 -10 -11 -10 -14 0 -34 6 -44 14 -19 13 -19 16 -1 90
10 42 21 76 25 76 5 0 62 -16 127 -36z m-2196 22 c0 -2 -7 -7 -16 -10 -8 -3
-12 -2 -9 4 6 10 25 14 25 6z m1960 -29 c0 -11 -61 -15 -317 -21 -175 -3 -374
-8 -443 -11 -89 -3 -116 -2 -95 5 102 33 855 56 855 27z m-1647 -14 c-7 -2
-21 -2 -30 0 -10 3 -4 5 12 5 17 0 24 -2 18 -5z m-1638 -18 c258 -9 718 -68
893 -114 84 -22 108 -37 45 -27 -69 10 -282 34 -518 58 -190 19 -280 22 -665
22 -661 0 -1027 -32 -1494 -130 -65 -14 -120 -23 -122 -21 -9 9 240 88 376
121 159 37 406 68 690 86 284 18 404 18 795 5z m1544 -48 c58 -7 106 -17 108
-22 2 -6 -2 -19 -10 -28 -11 -16 -22 -17 -127 -7 -207 18 -212 18 -248 -3 -50
-29 -52 -11 -5 34 41 38 44 39 110 38 37 0 115 -6 172 -12z m601 -33 c48 -25
100 -57 116 -70 l29 -25 -40 17 c-80 32 -118 44 -141 44 -17 0 -31 10 -44 33
-37 60 -32 60 80 1z m-2059 -54 c57 -6 149 -17 204 -25 126 -19 302 -40 517
-62 151 -15 167 -19 172 -37 3 -11 4 -21 3 -22 -1 -2 -63 3 -137 11 -74 7
-173 16 -220 19 l-85 5 110 -15 c61 -9 162 -23 225 -32 l115 -17 12 -55 c6
-30 12 -66 12 -80 l1 -25 -127 7 c-71 4 -160 9 -199 11 l-71 4 39 -69 c106
-188 133 -304 133 -575 0 -111 -2 -203 -5 -206 -3 -3 -20 -8 -37 -12 l-33 -7
8 49 c4 26 7 116 7 198 -1 123 -5 165 -23 233 -104 386 -442 610 -786 522
-195 -50 -345 -185 -446 -404 -85 -182 -117 -447 -85 -686 l5 -35 -15 40 c-48
122 -58 409 -20 555 23 91 104 252 167 335 141 186 357 285 593 272 55 -3 109
-8 120 -11 11 -4 5 1 -13 9 -100 47 -308 72 -449 56 -109 -13 -184 -36 -300
-92 -76 -36 -131 -53 -93 -29 11 7 12 10 2 10 -31 0 -1 25 69 57 53 24 64 32
39 28 -81 -15 -250 -69 -315 -101 -39 -18 -85 -34 -102 -34 -37 0 -284 -28
-628 -71 -247 -31 -561 -49 -815 -48 -80 1 -138 3 -130 5 8 2 128 10 265 19
307 20 492 37 790 75 127 16 262 32 300 36 48 4 90 17 135 39 165 81 372 137
590 158 83 9 406 6 501 -3z m2829 -37 c0 -5 -15 -35 -34 -68 -33 -59 -34 -60
-75 -59 -37 1 -49 7 -102 60 -32 32 -59 62 -59 66 0 4 61 8 135 8 74 0 135 -3
135 -7z m-1690 -103 c85 -11 218 -27 295 -35 77 -9 252 -31 389 -49 279 -37
263 -30 312 -128 31 -61 31 -71 -3 -64 -37 7 -380 33 -623 46 -420 23 -534 30
-538 35 -7 6 -31 149 -26 154 2 2 74 -6 161 -18 319 -43 821 -101 877 -101 85
0 -375 67 -714 105 -343 38 -334 36 -338 62 -3 20 0 22 25 18 15 -3 98 -14
183 -25z m-1891 -156 c7 -6 -180 -137 -249 -173 -99 -51 -241 -96 -387 -121
-180 -30 -376 -50 -362 -35 3 2 83 18 179 34 394 69 530 122 665 260 49 51 49
51 100 45 27 -4 52 -8 54 -10z m3583 5 c108 -23 289 -124 301 -168 3 -12 3
-21 1 -21 -2 0 -31 19 -64 41 -34 23 -93 53 -133 67 -63 23 -88 26 -197 27
-142 0 -186 -12 -283 -77 -69 -47 -131 -122 -204 -248 -56 -99 -60 -90 -13 35
37 100 74 160 134 221 62 61 124 98 196 118 66 18 190 20 262 5z m-3932 -19
c11 -11 20 -33 20 -50 0 -31 -30 -70 -54 -70 -26 0 -57 35 -71 82 -12 43 -12
47 3 51 42 11 83 6 102 -13z m-229 -39 c40 -40 47 -65 26 -92 -32 -41 -89 -25
-126 34 -56 92 22 137 100 58z m1513 -14 c144 -69 253 -210 308 -403 30 -104
33 -333 5 -434 -46 -173 -158 -318 -294 -383 -62 -29 -76 -32 -163 -32 -86 1
-100 4 -155 32 -105 54 -184 131 -264 258 -42 66 -39 48 6 -39 22 -41 67 -102
107 -143 76 -80 75 -94 -2 -34 -96 76 -162 179 -207 321 -39 124 -46 321 -16
440 48 190 163 350 296 414 83 41 107 45 210 43 81 -2 99 -7 169 -40z m-1747
-26 c36 -26 91 -97 82 -106 -2 -2 -15 -6 -29 -10 -20 -5 -28 -1 -42 23 -9 15
-39 49 -67 75 l-50 47 33 0 c21 0 48 -11 73 -29z m4528 -18 c81 -42 143 -101
174 -167 29 -59 33 -76 46 -176 l5 -45 -17 45 c-32 79 -60 124 -123 192 -114
123 -254 150 -401 77 -50 -25 -127 -113 -160 -184 -65 -137 -100 -370 -81
-536 5 -52 9 -95 7 -97 -2 -2 -11 30 -20 70 -26 106 -31 286 -11 371 54 229
199 410 376 468 44 15 161 4 205 -18z m-100 -54 c61 -11 128 -40 141 -60 3 -6
-5 -4 -18 5 -14 9 -64 25 -112 35 -126 28 -134 43 -11 20z m-4793 -95 c97
-100 98 -103 78 -170 -7 -24 -8 -19 -7 25 l2 53 -67 55 -68 54 0 -84 0 -84
-227 -6 c-124 -4 -356 -7 -515 -7 l-288 0 0 109 0 108 38 7 c20 3 105 6 187 7
83 1 267 7 410 13 143 7 283 14 312 14 l52 2 93 -96z m4870 -28 c87 -31 160
-119 204 -244 29 -85 41 -241 25 -326 -23 -121 -95 -234 -174 -274 -83 -41
-218 -22 -273 39 -21 24 -41 25 -24 2 7 -10 -6 2 -29 27 -199 216 -151 665 82
771 49 22 135 24 189 5z m-3964 -251 c16 -39 57 -133 91 -209 33 -77 60 -140
58 -141 -1 -1 -23 -5 -48 -7 l-46 -5 -33 66 c-48 98 -140 252 -166 278 -21 21
-29 23 -96 18 -93 -8 -245 -24 -280 -31 -41 -8 -26 23 15 32 34 7 471 71 474
69 1 0 15 -32 31 -70z m-2091 43 c-3 -8 -6 -5 -6 6 -1 11 2 17 5 13 3 -3 4
-12 1 -19z m1118 -113 c-59 -25 -266 -37 -536 -29 -143 4 -262 10 -264 14 -7
12 314 27 585 28 210 0 241 -2 215 -13z m485 -31 c0 -16 -92 -133 -124 -158
-39 -29 -138 -78 -145 -71 -2 3 16 28 41 57 24 29 65 81 92 116 45 60 49 62
92 62 24 0 44 -3 44 -6z m-575 -113 l90 -6 -55 -7 c-118 -15 -371 -20 -637
-12 -153 4 -271 9 -262 11 62 14 716 25 864 14z m975 -140 c-8 -5 -62 -19
-120 -31 -151 -32 -167 -38 -105 -40 28 -1 73 -5 100 -10 29 -4 -105 -7 -315
-7 -201 0 -351 2 -335 4 17 3 34 9 39 14 6 5 -67 10 -190 10 -109 1 -273 5
-364 8 l-165 6 90 8 c50 4 281 12 515 18 379 10 809 24 850 27 13 1 13 0 0 -7z
m3163 -67 c56 -4 97 -11 97 -17 0 -12 -1524 -2 -1543 10 -7 5 24 11 68 14 95
8 1236 1 1378 -7z m206 -129 l20 -35 -657 0 -657 1 75 25 c41 14 93 29 115 33
22 5 275 9 562 10 l521 1 21 -35z m-3119 -40 c0 -6 -47 -11 -116 -12 -64 -1
-114 0 -111 3 3 3 49 18 103 34 l99 28 12 -22 c7 -11 12 -25 13 -31z m-3185
-64 c483 -50 944 -78 1440 -86 187 -3 686 -10 1108 -16 l769 -11 51 -24 c29
-13 60 -24 70 -24 9 0 17 -4 17 -9 0 -4 -123 -11 -272 -15 -442 -11 -885 -25
-1153 -37 -330 -15 -392 -15 -775 5 -622 32 -1013 57 -1305 86 -55 5 -103 10
-107 10 -5 0 -8 -810 -8 -1800 0 -990 2 -1800 5 -1800 2 0 73 11 157 25 152
25 718 98 853 110 l70 6 32 -60 32 -60 -32 -6 c-18 -3 -124 -17 -237 -31 -234
-29 -525 -69 -814 -114 -110 -16 -203 -30 -208 -30 -4 0 -8 880 -8 1956 l0
1957 63 -6 c34 -4 148 -15 252 -26z m8525 -1920 c0 -1073 -4 -1952 -8 -1955
-4 -2 -39 2 -78 9 -92 17 -520 78 -847 120 -142 18 -260 35 -263 38 -4 4 39
102 51 115 6 7 703 -80 868 -108 61 -10 115 -16 119 -14 4 3 8 813 8 1801 l0
1796 -57 -7 c-251 -27 -679 -59 -1248 -92 -285 -17 -372 -16 -970 6 -148 5
-520 14 -825 21 -305 6 -573 14 -595 18 -34 6 -21 9 90 24 284 38 408 42 1665
57 467 6 841 15 980 25 301 20 670 52 860 74 85 10 176 19 203 20 l47 1 0
-1949z m-378 1022 l3 -498 -243 -610 c-134 -335 -309 -771 -390 -969 l-146
-359 -70 7 c-80 7 -335 34 -381 40 -16 2 -76 7 -133 11 -93 7 -104 10 -112 29
-19 47 -75 199 -120 326 -26 74 -74 205 -105 290 -31 85 -96 265 -145 400 -48
135 -99 273 -114 308 -14 34 -47 120 -72 190 -70 194 -66 189 -98 91 -15 -46
-50 -147 -78 -224 -28 -77 -70 -194 -93 -260 -24 -66 -68 -187 -98 -270 -31
-82 -90 -244 -132 -360 -76 -207 -167 -454 -180 -487 -7 -17 -34 -18 -366 -18
-334 0 -360 1 -366 17 -3 10 -29 79 -58 153 -77 198 -74 180 -46 292 15 60 28
93 33 86 4 -7 5 -21 2 -32 -4 -12 -2 -16 5 -12 12 8 26 -37 16 -53 -3 -7 0 -8
9 -5 13 5 12 13 -5 56 -11 28 -24 58 -28 67 -5 9 -11 79 -14 156 -6 164 -28
260 -86 379 -63 129 -157 228 -286 301 -27 15 -51 29 -53 30 -1 1 13 25 32 53
43 65 89 183 111 287 23 108 30 309 16 418 -27 199 -117 427 -210 530 l-25 27
142 0 c98 0 142 -3 142 -11 0 -8 5 -8 15 1 16 13 124 15 136 3 4 -5 105 -323
224 -708 120 -385 238 -769 265 -853 l47 -154 27 89 c29 94 437 1373 490 1533
l31 95 418 3 417 2 10 -26 c14 -36 523 -1637 534 -1678 1 -5 32 89 68 210 37
120 134 442 217 714 82 272 172 569 199 660 l50 165 213 22 c179 18 340 36
371 42 4 0 9 -223 10 -496z m-7798 462 c149 -13 404 -34 566 -45 162 -11 347
-25 410 -31 365 -35 579 -177 678 -451 26 -71 26 -81 32 -370 3 -163 7 -298
10 -300 32 -24 92 -58 103 -58 7 0 23 7 35 16 l22 15 0 385 c0 355 4 409 25
374 9 -15 143 -104 200 -132 48 -25 258 -98 280 -98 5 0 -27 21 -72 46 -45 26
-116 78 -157 115 -64 59 -228 253 -344 405 l-34 44 689 0 c706 0 810 -5 941
-40 131 -36 260 -113 325 -196 l19 -25 -58 -67 c-85 -97 -234 -245 -348 -346
l-100 -88 -11 44 c-16 65 -48 111 -97 138 -42 25 -47 25 -315 28 l-273 3 0
-300 0 -301 269 0 269 0 53 28 c37 19 61 40 78 71 16 26 58 67 111 107 171
129 362 320 477 476 42 56 59 74 65 64 4 -8 18 -54 30 -103 31 -126 31 -362 0
-477 -30 -109 -91 -230 -149 -295 -51 -58 -154 -131 -185 -131 -35 0 -18 -16
35 -33 29 -9 81 -34 116 -55 204 -123 301 -327 301 -637 0 -117 -11 -241 -26
-287 -5 -16 -10 -13 -37 15 -18 18 -61 57 -97 87 -36 30 -112 97 -170 149
-122 109 -539 449 -578 471 -22 12 -80 16 -294 18 l-268 3 0 -265 0 -266 325
0 326 0 -6 -37 c-24 -140 -115 -289 -233 -378 -24 -19 -42 -35 -39 -35 3 0 51
23 107 51 125 63 217 144 256 227 22 46 29 77 33 155 l6 98 87 -88 c47 -48
119 -127 160 -174 125 -146 272 -327 276 -338 3 -8 -291 -11 -982 -11 l-986 0
0 525 0 525 -39 26 c-42 27 -45 27 -98 -15 l-33 -26 0 -245 c0 -280 -11 -347
-77 -472 -88 -168 -241 -277 -458 -328 -106 -25 -177 -34 -575 -70 -412 -38
-670 -67 -842 -95 l-28 -4 0 1514 c0 1157 3 1515 12 1515 6 0 133 -11 282 -25z
m2645 -3258 c43 -15 141 -76 141 -88 0 -4 -28 -37 -63 -74 l-62 -68 -38 26
c-78 53 -191 43 -234 -21 -39 -59 -45 -261 -10 -329 41 -78 169 -87 262 -19
19 14 25 10 90 -50 l70 -64 -38 -34 c-84 -75 -209 -108 -329 -88 -116 20 -188
69 -235 159 -39 73 -53 141 -53 253 0 228 79 357 250 406 56 17 189 12 249 -9z
m2672 -6 c31 -12 73 -36 93 -54 l37 -32 -64 -63 -63 -63 -45 25 c-58 34 -149
36 -179 6 -48 -48 -9 -87 124 -123 54 -15 114 -36 135 -46 176 -91 157 -347
-31 -432 -74 -33 -235 -33 -319 0 -63 24 -137 73 -146 97 -6 16 39 69 89 105
26 19 26 19 78 -7 70 -35 161 -44 206 -19 41 22 51 48 29 81 -18 28 -34 35
-153 70 -106 31 -151 54 -189 98 -41 46 -57 97 -50 161 10 103 66 170 170 207
70 25 199 20 278 -11z m-1827 -63 c46 -154 206 -726 206 -737 0 -12 -168 -15
-185 -3 -6 4 -17 34 -25 67 l-15 60 -120 0 -120 0 -14 -62 c-16 -70 -21 -73
-142 -73 -51 0 -69 4 -69 13 0 8 18 74 40 148 23 74 72 246 111 384 39 137 75
257 80 267 8 16 24 18 119 18 l109 0 25 -82z m921 63 c58 -23 103 -62 131
-114 24 -45 28 -63 28 -132 0 -63 -5 -90 -23 -128 -23 -46 -75 -97 -99 -97
-21 0 -13 -19 68 -175 l80 -153 -32 -5 c-18 -2 -67 -2 -109 1 l-76 5 -69 138
-68 139 -38 0 -38 0 0 -142 0 -143 -93 0 -92 0 1 38 c0 20 1 206 2 413 l2 376
198 -4 c120 -3 209 -10 227 -17z m-2501 -43 c-22 -24 -46 -54 -55 -67 l-15
-24 -310 16 c-314 17 -606 38 -601 43 2 2 315 25 797 58 107 7 201 14 209 15
7 0 -4 -18 -25 -41z m4081 17 c138 -8 349 -23 470 -32 l220 -18 -130 -11 c-71
-7 -275 -20 -453 -30 l-322 -18 -17 25 c-10 13 -35 43 -56 66 l-38 41 38 -4
c21 -2 151 -11 288 -19z m-4167 -362 l-3 -48 -500 1 c-359 1 -565 5 -731 17
-128 10 -244 17 -260 17 -15 0 -25 2 -22 5 5 6 468 43 593 48 44 2 270 4 503
5 l423 2 -3 -47z m5217 17 c143 -11 261 -22 262 -24 3 -3 -303 -24 -537 -36
-96 -5 -356 -10 -577 -10 l-403 0 0 51 0 51 498 -5 c389 -4 553 -9 757 -27z
m-5178 -320 l21 -40 -56 0 c-79 0 -614 28 -618 33 -6 6 446 41 581 45 49 2 51
1 72 -38z m4181 25 c114 -8 243 -19 287 -23 l80 -8 -95 -7 c-117 -9 -468 -27
-533 -27 l-48 0 23 40 c27 47 6 45 286 25z"/>
<path d="M5013 6181 c-157 -54 -257 -204 -283 -426 -17 -141 8 -337 53 -418
23 -42 119 -122 185 -156 54 -27 155 -42 217 -30 61 11 102 37 162 103 58 64
87 121 123 239 l27 91 7 -51 c11 -89 -27 -199 -101 -290 -50 -62 -164 -116
-246 -117 -34 0 -75 3 -92 6 -28 7 -28 6 5 -9 48 -21 154 -12 223 20 111 51
203 165 242 301 21 73 16 267 -10 361 -45 162 -144 295 -271 363 -51 27 -73
32 -125 32 -35 -1 -87 -9 -116 -19z m34 -113 c-2 -7 -16 -12 -31 -10 l-27 3
19 -38 c22 -44 50 -127 54 -163 3 -21 9 -15 41 42 29 53 37 77 37 118 0 31 4
49 10 45 6 -3 10 -15 10 -25 0 -13 6 -18 20 -15 24 5 24 -2 4 -71 -30 -104 -4
-148 60 -99 20 15 36 22 36 16 0 -23 -50 -111 -62 -108 -21 4 -19 -29 3 -56
18 -24 26 -27 57 -21 21 4 47 16 59 27 18 16 23 17 27 6 2 -8 12 -35 21 -60 9
-26 15 -57 12 -70 -4 -22 -4 -22 -6 3 -1 30 -33 54 -66 50 -122 -14 -160 -69
-76 -111 44 -23 65 -46 80 -90 23 -71 14 -75 -43 -16 -30 30 -61 55 -69 55
-23 0 -60 -113 -52 -161 6 -32 4 -39 -9 -39 -9 0 -16 -7 -16 -15 0 -8 -5 -15
-11 -15 -7 0 -9 10 -7 25 3 13 1 22 -3 19 -9 -5 -11 0 -14 46 -3 36 -33 90
-50 90 -8 0 -17 -12 -21 -27 -9 -45 -35 -101 -55 -119 -17 -15 -19 -15 -25 0
-11 29 6 88 27 93 22 6 23 17 8 62 -10 27 -15 31 -47 31 -33 0 -41 -6 -71 -50
-18 -27 -37 -48 -41 -45 -10 6 -54 144 -47 151 3 3 16 -13 29 -35 23 -38 26
-40 45 -26 25 18 73 100 73 126 0 13 -14 22 -51 32 -43 13 -54 13 -77 1 -44
-23 -52 -18 -52 29 0 23 5 49 10 57 9 13 15 10 38 -18 28 -33 28 -33 76 -21
54 13 65 29 45 65 -11 22 -11 27 1 36 12 8 12 9 -2 5 -19 -7 -58 50 -58 84 0
17 -6 15 -35 -17 -19 -20 -38 -34 -41 -31 -7 6 24 96 38 112 6 6 31 -14 67
-53 57 -62 86 -75 120 -53 11 7 11 21 -4 86 -9 43 -22 94 -29 113 l-13 36 -46
-44 c-48 -43 -68 -48 -48 -12 20 37 101 80 154 81 19 1 27 -3 24 -11z m278
-158 c25 -56 14 -60 -13 -5 -12 25 -18 45 -13 45 4 0 16 -18 26 -40z m36 -366
c-7 -30 -17 -54 -23 -54 -15 0 -4 94 13 113 20 22 23 3 10 -59z m46 -98 c-3
-30 -13 -67 -22 -83 -15 -27 -16 -27 -10 -3 3 14 11 51 17 83 14 72 23 74 15
3z m-450 -187 c8 -15 9 -25 2 -27 -15 -6 -32 12 -59 60 l-24 43 35 -26 c19
-14 39 -37 46 -50z"/>
<path d="M5120 5831 c0 -22 25 -39 38 -27 8 8 -10 38 -26 44 -7 2 -12 -6 -12
-17z"/>
<path d="M5053 5763 c-30 -6 -71 -56 -79 -98 -10 -53 3 -98 36 -130 34 -32 86
-39 115 -15 25 20 55 85 55 117 0 29 -32 107 -46 115 -16 9 -59 15 -81 11z
m41 -79 c29 -29 11 -104 -24 -104 -26 0 -40 86 -18 108 16 16 23 15 42 -4z"/>
<path d="M5064 5656 c-3 -9 -3 -24 1 -33 6 -17 7 -17 21 2 8 10 13 24 11 29
-6 17 -27 18 -33 2z"/>
<path d="M5010 5464 c0 -8 5 -12 10 -9 6 4 8 11 5 16 -9 14 -15 11 -15 -7z"/>
<path d="M5138 5469 c-22 -12 -24 -49 -3 -49 17 0 28 21 23 44 -2 11 -7 12
-20 5z"/>
<path d="M4801 6113 c-126 -126 -177 -325 -136 -525 19 -93 61 -219 92 -282
27 -53 131 -166 153 -166 8 0 -7 21 -32 48 -118 120 -207 353 -193 501 18 176
88 361 173 454 49 52 0 27 -57 -30z"/>
<path d="M7899 5975 c-81 -26 -138 -110 -158 -235 -18 -108 -13 -167 21 -285
30 -102 35 -112 82 -157 55 -53 90 -64 163 -54 120 16 180 117 184 311 1 69
16 23 19 -60 l2 -60 10 45 c13 65 3 214 -21 290 -50 160 -175 245 -302 205z
m-2 -130 c7 -26 17 -53 23 -59 5 -5 10 -20 10 -33 0 -13 6 -23 13 -23 9 0 11
12 9 40 -4 43 14 103 29 95 4 -3 7 -35 6 -71 -2 -48 0 -62 7 -52 11 14 46 32
46 23 0 -13 -25 -55 -32 -55 -5 0 -8 -10 -6 -22 3 -24 11 -25 74 -12 29 5 32
3 43 -27 6 -17 10 -55 10 -83 -1 -29 -4 -38 -6 -21 -6 51 -23 105 -34 105 -5
0 -23 -10 -39 -22 -38 -27 -41 -68 -7 -68 25 0 52 -25 83 -75 l18 -30 -30 27
c-16 15 -42 32 -58 38 -24 9 -31 8 -42 -7 -17 -23 -17 -42 0 -62 17 -21 28
-79 16 -86 -6 -3 -10 0 -10 8 0 8 -7 21 -17 28 -9 8 -23 29 -30 48 -19 46 -32
25 -26 -41 4 -36 1 -53 -9 -59 -24 -16 -28 -9 -28 45 0 102 -29 118 -55 31 -9
-31 -20 -53 -25 -50 -15 9 -12 42 6 76 26 51 -7 84 -39 39 -13 -19 -15 -19
-21 -4 -4 11 2 27 19 44 33 35 34 80 2 80 -29 0 -62 23 -54 38 7 11 44 5 63
-10 18 -14 24 62 7 95 -7 15 -18 27 -23 27 -13 0 -13 47 0 55 6 3 13 -2 16
-12 12 -40 34 -83 42 -83 4 0 16 6 26 13 17 13 18 19 7 68 -19 83 -19 83 -36
69 -20 -17 -19 -6 1 15 24 24 38 14 51 -40z m193 -265 c0 -5 -4 -10 -10 -10
-5 0 -10 5 -10 10 0 6 5 10 10 10 6 0 10 -4 10 -10z m32 -248 c-12 -16 -29
-35 -38 -43 -9 -8 -2 7 16 33 19 26 36 46 38 43 2 -2 -5 -17 -16 -33z"/>
<path d="M7886 5669 c-50 -39 -29 -134 35 -154 62 -20 98 110 43 154 -15 12
-32 21 -39 21 -7 0 -24 -9 -39 -21z m52 -62 c3 -39 -11 -49 -27 -19 -12 23 -3
64 13 59 6 -2 12 -20 14 -40z"/>
<path d="M7767 5929 c-119 -139 -129 -370 -22 -531 38 -57 40 -41 5 34 -44 93
-55 170 -40 271 12 84 46 180 82 230 32 45 14 42 -25 -4z"/>
<path d="M4010 5804 c0 -9 41 -74 46 -74 2 0 -5 18 -16 40 -19 37 -30 49 -30
34z"/>
<path d="M7340 2985 c0 -5 5 -17 10 -25 5 -8 10 -10 10 -5 0 6 -5 17 -10 25
-5 8 -10 11 -10 5z"/>
<path d="M7570 2543 c0 -6 8 -17 18 -24 16 -13 16 -13 2 6 -8 11 -16 22 -17
24 -2 2 -3 0 -3 -6z"/>
<path d="M7607 2479 c4 -13 8 -18 11 -10 2 7 -1 18 -6 23 -8 8 -9 4 -5 -13z"/>
<path d="M7670 2374 c0 -5 7 -18 15 -28 8 -11 15 -16 15 -10 0 5 -7 18 -15 28
-8 11 -15 16 -15 10z"/>
<path d="M5776 2195 c28 -66 49 -106 56 -111 9 -6 -51 128 -64 141 -5 6 -2 -8
8 -30z"/>
<path d="M7801 2150 c14 -31 19 -36 19 -24 0 6 -7 19 -16 30 -14 18 -14 18 -3
-6z"/>
<path d="M7830 2102 c0 -6 5 -14 10 -17 6 -4 7 -11 4 -17 -4 -7 -2 -8 5 -4 9
6 9 12 -1 24 -7 10 -14 19 -15 21 -2 2 -3 -1 -3 -7z"/>
<path d="M7868 2023 c-3 -12 -2 -21 2 -20 5 1 15 -7 23 -18 9 -11 18 -17 21
-14 3 3 -2 14 -13 25 -10 11 -20 26 -23 34 -3 10 -6 8 -10 -7z"/>
<path d="M5859 2018 c7 -10 11 -18 7 -18 -3 0 6 -18 20 -40 15 -22 28 -40 31
-40 7 0 -26 58 -37 65 -6 4 -8 10 -5 15 3 4 -3 14 -13 21 -15 13 -16 12 -3 -3z"/>
<path d="M7920 1956 c0 -2 8 -10 18 -17 15 -13 16 -12 3 4 -13 16 -21 21 -21
13z"/>
<path d="M7737 1919 c7 -7 15 -10 18 -7 3 3 -2 9 -12 12 -14 6 -15 5 -6 -5z"/>
<path d="M7768 1893 c7 -3 16 -2 19 1 4 3 -2 6 -13 5 -11 0 -14 -3 -6 -6z"/>
<path d="M7793 1873 c9 -2 25 -2 35 0 9 3 1 5 -18 5 -19 0 -27 -2 -17 -5z"/>
<path d="M1790 3761 l0 -301 210 0 c240 0 287 10 352 77 52 53 70 110 71 218
1 76 -3 99 -25 145 -28 62 -73 110 -127 137 -31 15 -69 18 -258 21 l-223 3 0
-300z"/>
<path d="M3646 3710 c-67 -26 -83 -43 -90 -99 l-6 -49 -175 -117 c-96 -65
-172 -121 -170 -126 3 -4 31 -22 62 -38 l57 -31 80 52 c44 29 118 81 164 116
69 51 91 62 123 62 29 0 47 8 74 31 52 46 58 62 40 106 -9 21 -23 48 -31 61
l-15 23 -34 -37 c-29 -31 -37 -35 -50 -24 -20 17 -19 32 6 64 11 14 19 26 17
25 -2 0 -25 -9 -52 -19z"/>
<path d="M2590 3621 l-35 -6 39 -42 c39 -44 43 -68 14 -87 -14 -8 -24 -4 -51
22 -40 39 -49 40 -41 5 23 -96 75 -139 155 -130 45 6 54 2 196 -80 81 -47 249
-142 373 -213 344 -195 323 -181 338 -226 19 -58 62 -94 116 -94 24 0 58 3 76
6 l32 7 -41 37 c-45 42 -51 64 -21 80 16 8 28 5 61 -15 22 -15 43 -25 45 -23
10 11 -25 86 -54 115 -28 29 -39 33 -83 33 -44 0 -63 8 -147 59 -53 33 -209
122 -347 199 -416 232 -438 246 -447 277 -4 15 -19 41 -34 56 -29 30 -62 35
-144 20z"/>
<path d="M2640 3201 c-243 -62 -279 -78 -171 -73 38 2 95 -2 127 -8 32 -7 71
-14 86 -17 20 -4 48 9 119 55 84 55 90 61 71 71 -32 17 -76 12 -232 -28z"/>
<path d="M2820 3084 c-137 -92 -160 -104 -199 -104 -37 0 -49 -6 -82 -39 -32
-32 -39 -46 -39 -77 0 -93 97 -162 173 -123 44 23 77 63 84 102 5 36 13 43
162 143 179 120 196 132 190 138 -6 5 -128 66 -131 65 -2 0 -73 -47 -158 -105z"/>
<path d="M1790 2639 l0 -291 218 4 c212 3 218 4 267 30 103 54 148 134 148
263 0 101 -27 169 -89 224 -63 55 -94 61 -333 61 l-211 0 0 -291z"/>
<path d="M5200 2433 c0 -5 10 -18 23 -29 l22 -19 -20 25 c-11 14 -21 27 -22
29 -2 2 -3 0 -3 -6z"/>
<path d="M5243 2359 c-2 -23 3 -25 10 -4 4 8 3 16 -1 19 -4 3 -9 -4 -9 -15z"/>
<path d="M5263 2335 c0 -8 4 -12 9 -9 5 3 6 10 3 15 -9 13 -12 11 -12 -6z"/>
<path d="M5275 2309 c-4 -6 -5 -12 -2 -15 2 -3 7 2 10 11 7 17 1 20 -8 4z"/>
<path d="M4716 1107 c-15 -62 -29 -130 -33 -150 l-6 -37 72 0 c64 0 72 2 67
18 -3 9 -19 76 -37 147 -17 72 -32 131 -34 133 -1 1 -14 -49 -29 -111z"/>
<path d="M5567 1174 c1 -53 4 -98 7 -101 3 -3 34 -2 70 2 83 8 116 35 116 94
0 22 -3 47 -6 56 -11 27 -60 45 -126 45 l-63 0 2 -96z"/>
</g>
</svg>
